<svg width="322" height="58" viewBox="0 0 322 58" fill="none" xmlns="http://www.w3.org/2000/svg">
<g clip-path="url(#clip0_267_939)">
<path d="M103.236 17.8688C102.652 17.2804 102.358 16.5511 102.358 15.6797C102.358 14.8083 102.65 14.0805 103.236 13.492C103.821 12.9022 104.545 12.608 105.408 12.608C106.272 12.608 106.953 12.9022 107.539 13.492C108.123 14.0805 108.416 14.8111 108.416 15.6797C108.416 16.5483 108.124 17.2789 107.539 17.8688C106.955 18.4587 106.244 18.7529 105.408 18.7529C104.573 18.7529 103.821 18.4587 103.236 17.8688ZM107.747 21.8246V45.0134H102.986V21.8246H107.747Z" fill="#33E0E1"/>
<path d="M130.488 22.582C131.921 23.3394 133.042 24.4614 133.849 25.9494C134.657 27.4374 135.06 29.2323 135.06 31.3355V45.0133H130.341V32.052C130.341 29.9756 129.825 28.3848 128.796 27.2755C127.765 26.1676 126.359 25.6129 124.578 25.6129C122.797 25.6129 121.383 26.1676 120.339 27.2755C119.295 28.3834 118.773 29.9756 118.773 32.052V45.0133H114.012V21.8246H118.773V24.4754C119.552 23.5224 120.549 22.7791 121.759 22.2455C122.97 21.7134 124.258 21.4459 125.622 21.4459C127.431 21.4459 129.053 21.8246 130.488 22.582Z" fill="#33E0E1"/>
<path d="M140.97 27.1277C141.931 25.3328 143.239 23.9363 144.896 22.9396C146.552 21.9443 148.397 21.4459 150.43 21.4459C151.933 21.4459 153.416 21.7753 154.879 22.4342C156.34 23.0944 157.502 23.9701 158.366 25.0639V13.8693H163.169V45.0119H158.366V41.5193C157.586 42.6413 156.508 43.5676 155.129 44.2968C153.75 45.026 152.17 45.3906 150.388 45.3906C148.383 45.3906 146.552 44.8796 144.896 43.8548C143.239 42.8313 141.93 41.3996 140.97 39.5625C140.01 37.7253 139.53 35.6418 139.53 33.3134C139.53 30.985 140.01 28.9226 140.97 27.1277ZM157.384 29.2323C156.73 28.054 155.873 27.1558 154.816 26.5392C153.757 25.9226 152.615 25.6129 151.391 25.6129C150.167 25.6129 149.025 25.9142 147.967 26.5181C146.908 27.122 146.053 28.0047 145.398 29.1689C144.744 30.3332 144.417 31.7156 144.417 33.3148C144.417 34.914 144.744 36.3176 145.398 37.5226C146.052 38.7291 146.915 39.6469 147.988 40.279C149.06 40.9097 150.194 41.2265 151.391 41.2265C152.589 41.2265 153.758 40.9182 154.816 40.3001C155.873 39.6835 156.73 38.7784 157.384 37.586C158.037 36.3936 158.366 34.9971 158.366 33.3979C158.366 31.7986 158.039 30.4092 157.384 29.2323Z" fill="#27215E"/>
<path d="M169.287 27.1277C170.248 25.3328 171.556 23.9363 173.213 22.9396C174.868 21.9443 176.7 21.4459 178.705 21.4459C180.514 21.4459 182.094 21.8035 183.445 22.5186C184.795 23.2338 185.875 24.1249 186.682 25.1906V21.8232H191.486V45.0119H186.682V41.5615C185.875 42.6553 184.775 43.5676 183.382 44.2968C181.99 45.026 180.402 45.3906 178.621 45.3906C176.644 45.3906 174.834 44.8796 173.192 43.8548C171.549 42.8313 170.247 41.3996 169.287 39.5625C168.327 37.7253 167.847 35.6418 167.847 33.3134C167.847 30.985 168.327 28.9226 169.287 27.1277ZM185.7 29.2323C185.046 28.054 184.19 27.1558 183.132 26.5392C182.073 25.9226 180.932 25.6129 179.708 25.6129C178.484 25.6129 177.341 25.9142 176.284 26.5181C175.225 27.122 174.37 28.0047 173.714 29.1689C173.061 30.3332 172.734 31.7156 172.734 33.3148C172.734 34.914 173.061 36.3176 173.714 37.5226C174.368 38.7291 175.232 39.6469 176.305 40.279C177.376 40.9097 178.511 41.2265 179.708 41.2265C180.905 41.2265 182.075 40.9182 183.132 40.3001C184.19 39.6835 185.046 38.7783 185.7 37.586C186.354 36.3936 186.682 34.9971 186.682 33.3979C186.682 31.7986 186.356 30.4092 185.7 29.2323Z" fill="#27215E"/>
<path d="M214.351 22.582C215.73 23.3394 216.815 24.4614 217.609 25.9494C218.403 27.4374 218.799 29.2323 218.799 31.3355V45.0133H214.08V32.052C214.08 29.9756 213.564 28.3848 212.535 27.2755C211.504 26.1676 210.098 25.6129 208.317 25.6129C206.535 25.6129 205.122 26.1676 204.078 27.2755C203.034 28.3834 202.512 29.9756 202.512 32.052V45.0133H197.75V13.8707H202.512V24.5177C203.319 23.5365 204.342 22.7791 205.581 22.2455C206.82 21.7134 208.177 21.4459 209.654 21.4459C211.409 21.4459 212.975 21.8246 214.352 22.582H214.351Z" fill="#27215E"/>
<path d="M228.948 43.8984C227.193 42.9031 225.816 41.4996 224.814 39.6906C223.811 37.8802 223.311 35.784 223.311 33.3993C223.311 31.0145 223.826 28.9521 224.856 27.1291C225.885 25.306 227.292 23.9025 229.074 22.9213C230.855 21.94 232.846 21.4487 235.046 21.4487C237.247 21.4487 239.236 21.94 241.019 22.9213C242.8 23.9039 244.207 25.306 245.237 27.1291C246.267 28.9535 246.782 31.0427 246.782 33.3993C246.782 35.7559 246.253 37.8464 245.195 39.6695C244.136 41.4939 242.696 42.9031 240.872 43.8984C239.048 44.8951 237.036 45.392 234.837 45.392C232.638 45.392 230.703 44.8937 228.948 43.8984ZM238.282 40.3424C239.354 39.7525 240.224 38.8698 240.892 37.6915C241.56 36.5132 241.894 35.083 241.894 33.3993C241.894 31.7156 241.574 30.2923 240.934 29.1281C240.293 27.9639 239.444 27.0868 238.385 26.4984C237.326 25.9099 236.185 25.6143 234.961 25.6143C233.737 25.6143 232.601 25.9085 231.558 26.4984C230.514 27.0882 229.684 27.9653 229.072 29.1281C228.459 30.2923 228.153 31.717 228.153 33.3993C228.153 35.8966 228.786 37.8253 230.053 39.1866C231.32 40.5479 232.914 41.2279 234.835 41.2279C236.061 41.2279 237.209 40.9336 238.281 40.3438L238.282 40.3424Z" fill="#27215E"/>
<path d="M272.341 21.8246V45.0133H267.58V42.278C266.828 43.2325 265.846 43.9828 264.634 44.5291C263.423 45.0753 262.135 45.3498 260.771 45.3498C258.961 45.3498 257.34 44.9711 255.905 44.2137C254.47 43.4563 253.343 42.3343 252.523 40.8463C251.701 39.3597 251.291 37.5634 251.291 35.4602V21.8246H256.01V34.7437C256.01 36.8201 256.524 38.4123 257.555 39.5202C258.585 40.6281 259.992 41.1828 261.773 41.1828C263.555 41.1828 264.968 40.6295 266.012 39.5202C267.056 38.4123 267.578 36.8201 267.578 34.7437V21.8246H272.34H272.341Z" fill="#27215E"/>
<path d="M282.093 44.4024C280.658 43.7435 279.525 42.8454 278.689 41.7093C277.854 40.5733 277.408 39.3034 277.352 37.9013H282.28C282.364 38.8839 282.829 39.7047 283.679 40.3635C284.528 41.0237 285.593 41.3517 286.874 41.3517C288.155 41.3517 289.247 41.0927 289.985 40.5733C290.723 40.0552 291.092 39.3879 291.092 38.5742C291.092 37.7056 290.681 37.0595 289.859 36.6385C289.038 36.2176 287.736 35.7545 285.954 35.2491C284.228 34.7733 282.822 34.3101 281.737 33.861C280.651 33.4119 279.711 32.725 278.917 31.7986C278.124 30.8723 277.727 29.6518 277.727 28.137C277.727 26.9024 278.089 25.7734 278.812 24.75C279.536 23.7265 280.573 22.9199 281.924 22.33C283.275 21.7416 284.827 21.4459 286.58 21.4459C289.197 21.4459 291.307 22.1132 292.908 23.445C294.509 24.7781 295.365 26.5941 295.477 28.8944H290.716C290.632 27.8569 290.214 27.0291 289.463 26.4111C288.711 25.7945 287.694 25.4848 286.414 25.4848C285.134 25.4848 284.201 25.7241 283.532 26.2C282.864 26.6772 282.529 27.3093 282.529 28.0934C282.529 28.7114 282.751 29.2295 283.197 29.6504C283.642 30.0713 284.184 30.4007 284.826 30.6386C285.465 30.878 286.413 31.1792 287.666 31.5438C289.337 31.9929 290.707 32.449 291.78 32.9108C292.852 33.3739 293.778 34.0539 294.558 34.952C295.337 35.8502 295.741 37.0426 295.769 38.5292C295.769 39.8483 295.407 41.0266 294.684 42.0641C293.96 43.103 292.936 43.9153 291.614 44.5051C290.291 45.0936 288.739 45.3892 286.958 45.3892C285.176 45.3892 283.526 45.0598 282.091 44.401L282.093 44.4024Z" fill="#27215E"/>
<path d="M321.832 35.2068H304.25C304.388 37.0581 305.071 38.5461 306.296 39.6681C307.522 40.79 309.025 41.3517 310.808 41.3517C313.369 41.3517 315.179 40.272 316.237 38.1111H321.374C320.677 40.2438 319.417 41.9909 317.594 43.3508C315.769 44.7121 313.507 45.392 310.806 45.392C308.606 45.392 306.636 44.8937 304.897 43.8984C303.156 42.9031 301.792 41.4996 300.803 39.6906C299.814 37.8802 299.321 35.784 299.321 33.3993C299.321 31.0145 299.801 28.9169 300.761 27.108C301.722 25.299 303.072 23.9025 304.813 22.9213C306.552 21.94 308.551 21.4487 310.806 21.4487C313.061 21.4487 314.912 21.926 316.611 22.879C318.309 23.8335 319.632 25.1723 320.579 26.8982C321.525 28.6241 321.999 30.6091 321.999 32.8531C321.999 33.7231 321.943 34.5086 321.831 35.2097L321.832 35.2068ZM317.029 31.3355C317.001 29.5673 316.374 28.1511 315.15 27.0854C313.925 26.0197 312.407 25.4862 310.598 25.4862C308.955 25.4862 307.55 26.0127 306.38 27.0643C305.211 28.1159 304.515 29.5406 304.292 31.3355H317.03H317.029Z" fill="#27215E"/>
<path d="M57.5611 0V28.9296H28.8504C28.8504 18.2362 34.6163 8.89849 43.189 3.89107C47.4153 1.42184 52.3247 0.00563107 57.5611 0Z" fill="#33E0E1"/>
<path d="M57.5611 28.9296V29C57.5611 39.6765 51.8357 49.0044 43.3092 54.0372C39.0452 56.5571 34.0798 58 28.7806 58V28.9296H57.5611Z" fill="#27215E"/>
<path d="M28.7806 28.9296V58C12.8856 58 0 45.0162 0 29V28.9296H28.7806Z" fill="#5768F8"/>
<path d="M24.7289 14.3593C24.7289 20.1902 20.0374 24.9175 14.2506 24.9175C8.46373 24.9175 3.92031 20.3381 3.77501 14.6338C3.77361 14.5409 3.77222 14.4508 3.77222 14.3593C3.77222 8.52831 8.46373 3.80103 14.2506 3.80103C14.3414 3.80103 14.4308 3.80243 14.5216 3.80384H14.523C20.1841 3.95025 24.7289 8.61981 24.7289 14.3593Z" fill="#33E0E1"/>
<path d="M86.3417 28.9296V57.8592H57.596C73.4715 57.8592 86.3417 44.9064 86.3417 28.9296Z" fill="#33E0E1"/>
<path d="M86.3417 28.9296C86.3417 44.9064 73.4715 57.8592 57.5961 57.8592H57.5611V28.9296H86.3417Z" fill="#5768F8"/>
<path d="M86.3417 28.9296H57.5611V0H57.5961C73.4715 0 86.3417 12.9529 86.3417 28.9296Z" fill="#27215E"/>
</g>
<defs>
<clipPath id="clip0_267_939">
<rect width="322" height="58" fill="white"/>
</clipPath>
</defs>
</svg>
